# xmcd
#
# Track frame offsets:
#	150
#	14072
#	30025
#	46532
#	61902
#	76900
#	90837
#	106197
#	123065
#	139525
#	150987
#	164740
#	179555
#	193965
#	210597
#	221632
#
# Disc length: 3136 seconds
#
# Revision: 1
# Processed by: cddbd v1.5.2PL0 Copyright (c) Steve Scherf et al.
# Submitted via: audiograbber 1.83.01
#
DISCID=c40c3e10
DTITLE=Olivia Newton-John - Best
DYEAR=1990
DGENRE=Country
TTITLE0=Jolene
TTITLE1=Have You Never Been Mellow
TTITLE2=I Honestly Love You
TTITLE3=Compassionate Man
TTITLE4=Take Me Home Country Roads
TTITLE5=It's So Easy
TTITLE6=Please Mr. Please
TTITLE7=Sam
TTITLE8=Don't Stop Believin'
TTITLE9=Changes
TTITLE10=Water Under The Bridge
TTITLE11=Something Better To Do
TTITLE12=If You Love Me (Let Me Know)
TTITLE13=Come On Over
TTITLE14=Let It Shine
TTITLE15=Let Me Be There
EXTD=
EXTT0=
EXTT1=
EXTT2=
EXTT3=
EXTT4=
EXTT5=
EXTT6=
EXTT7=
EXTT8=
EXTT9=
EXTT10=
EXTT11=
EXTT12=
EXTT13=
EXTT14=
EXTT15=
PLAYORDER=
